<?xml version="1.0" standalone="no"?>
<!DOCTYPE svg PUBLIC "-//W3C//DTD SVG 20010904//EN"
        "http://www.w3.org/TR/2001/REC-SVG-20010904/DTD/svg10.dtd">
<svg version="1.0" xmlns="http://www.w3.org/2000/svg"
     width="488.000000pt" height="485.000000pt" viewBox="0 0 488.000000 485.000000"
     preserveAspectRatio="xMidYMid meet">
    <g transform="translate(0.000000,485.000000) scale(0.100000,-0.100000)"
       fill="#000000" stroke="none">
        <path d="M1550 4821 c-50 -7 -122 -41 -159 -74 -13 -12 -37 -50 -52 -84 -39
-85 -41 -194 -5 -283 14 -33 21 -61 18 -64 -4 -2 -63 1 -132 6 -247 19 -486 1
-681 -50 -117 -30 -249 -143 -287 -245 -82 -219 61 -483 375 -690 56 -37 104
-67 107 -67 4 0 23 -10 44 -23 49 -30 172 -81 286 -118 50 -16 105 -34 122
-39 17 -6 41 -10 53 -10 12 0 30 -4 39 -9 35 -19 258 -46 464 -57 81 -5 121
-11 129 -20 16 -20 7 -171 -13 -209 -22 -41 -70 -88 -110 -107 -18 -9 -85 -33
-148 -53 -334 -106 -509 -204 -695 -390 -56 -55 -110 -112 -122 -127 -92 -115
-217 -339 -248 -447 -10 -31 -21 -65 -25 -76 -4 -11 -13 -39 -19 -62 -13 -49
-14 -50 -86 -68 -83 -22 -129 -49 -199 -118 -79 -77 -109 -126 -141 -223 -21
-64 -25 -96 -25 -195 0 -102 4 -128 26 -190 89 -246 298 -389 569 -389 l96 0
44 -47 44 -48 -43 -6 c-91 -14 -134 -58 -121 -125 3 -17 15 -40 26 -50 20 -18
71 -19 1733 -22 941 -2 1731 0 1755 3 115 17 125 150 13 183 -22 7 -98 12
-171 12 -72 0 -131 3 -131 7 0 5 107 115 238 246 l237 237 0 51 c0 45 -4 54
-34 81 l-33 30 54 56 c29 32 106 111 169 177 327 338 320 329 320 421 0 89
-26 132 -111 183 -34 20 -47 21 -411 21 l-376 0 -38 -26 c-21 -14 -68 -57
-105 -96 l-68 -70 -53 42 c-72 56 -162 99 -211 100 -38 0 -14 17 56 38 229 72
443 304 515 562 7 25 16 59 21 75 9 33 26 138 35 227 13 117 -27 362 -82 503
-99 256 -283 495 -483 628 -97 64 -248 142 -301 157 -28 8 -51 29 -112 107
-83 107 -232 257 -342 344 -274 218 -647 403 -940 467 -66 15 -219 22 -275 13z
m244 -241 c263 -84 361 -125 546 -231 173 -99 490 -355 490 -395 0 -14 -234
-30 -271 -19 -13 4 -53 21 -89 37 -64 29 -116 52 -155 68 -11 5 -38 16 -60 25
-22 10 -49 21 -60 25 -11 4 -33 13 -50 20 -37 15 -297 101 -384 126 -58 17
-68 24 -115 84 -97 123 -125 199 -90 248 14 20 23 22 111 22 53 0 110 -4 127
-10z m-526 -485 c329 -40 634 -123 920 -251 29 -13 55 -24 58 -24 3 0 64 -29
137 -65 l132 -64 115 20 c204 36 413 11 579 -70 145 -70 228 -129 332 -237
195 -201 309 -474 309 -739 0 -65 -18 -194 -38 -275 -28 -110 -114 -254 -199
-329 -77 -69 -156 -108 -254 -127 -73 -14 -97 -14 -184 -3 -55 6 -111 16 -125
22 -14 5 -60 19 -103 32 -91 27 -132 20 -173 -28 -24 -28 -28 -47 -24 -122 5
-118 166 -278 317 -317 21 -5 108 -13 193 -17 173 -10 206 -19 272 -79 79 -71
100 -168 49 -224 l-30 -33 -338 1 c-365 2 -409 7 -535 61 -53 23 -58 29 -79
81 -85 214 -229 380 -419 484 -98 53 -249 98 -331 98 -59 0 -100 -24 -119 -70
-27 -66 13 -121 107 -145 123 -30 147 -39 213 -73 223 -116 359 -329 360 -562
0 -86 -17 -160 -51 -220 l-24 -42 -66 6 c-96 9 -286 -31 -379 -79 -68 -35 -93
-111 -56 -168 31 -46 81 -48 209 -7 125 40 221 41 304 4 165 -72 223 -244 91
-269 -18 -4 -290 -5 -603 -3 l-570 4 -70 23 c-397 136 -611 678 -471 1191 28
102 35 123 82 219 138 283 339 483 629 624 33 16 133 53 223 83 207 69 261 95
326 160 99 99 136 213 136 422 l0 132 60 0 c72 0 114 19 135 60 19 36 19 63 0
99 -20 39 -64 57 -180 71 -55 6 -110 16 -123 21 -13 5 -32 9 -43 9 -33 0 -248
67 -337 105 -229 99 -389 202 -511 329 -36 37 -78 74 -94 83 -38 19 -87 10
-121 -24 -22 -21 -26 -35 -26 -79 0 -48 4 -59 38 -96 152 -173 312 -281 622
-421 l35 -16 -30 0 c-25 -1 -123 17 -275 49 -133 28 -380 136 -510 223 -98 66
-240 208 -268 269 -57 123 -7 204 158 257 153 49 394 63 618 36z m3236 -2511
c27 -10 38 -41 25 -66 -6 -13 -125 -138 -264 -278 -236 -238 -616 -626 -819
-837 -48 -50 -100 -96 -115 -102 -17 -8 -113 -10 -281 -9 l-255 3 -3 27 c-3
24 37 68 329 358 l331 330 122 0 121 0 148 148 c81 81 147 151 147 155 0 4
-35 7 -79 7 -71 0 -79 2 -84 21 -3 11 -3 27 0 35 3 8 55 59 115 114 l110 100
218 0 c120 0 226 -3 234 -6z m-4054 -451 c1 -174 39 -365 101 -500 11 -25 18
-48 15 -51 -12 -11 -115 29 -159 63 -92 70 -137 164 -137 285 0 105 34 186
105 248 70 61 75 58 75 -45z m2288 -144 c107 -24 144 -28 245 -28 67 -1 107
-5 105 -11 -4 -12 -365 -389 -389 -407 -14 -11 -20 -7 -42 25 -14 20 -44 57
-66 82 -27 31 -37 49 -32 60 40 76 66 161 76 245 7 55 8 57 34 50 14 -3 45
-10 69 -16z"/>
        <path d="M3295 2903 c-68 -17 -120 -97 -113 -174 15 -154 207 -202 307 -77 19
24 24 41 24 94 0 53 -5 69 -26 98 -43 55 -115 78 -192 59z"/>
        <path d="M3983 1461 l-82 -78 69 -7 c40 -4 77 -3 87 3 28 15 153 148 146 155
-4 3 -36 6 -72 6 l-66 -1 -82 -78z"/>
        <path d="M4224 1463 l-76 -78 68 -6 c84 -7 108 5 183 88 58 66 56 71 -41 72
l-58 1 -76 -77z"/>
        <path d="M4031 1263 c-28 -31 -51 -61 -51 -65 0 -4 32 -8 72 -8 l72 0 58 57
c32 32 58 61 58 65 0 4 -36 8 -79 8 l-79 0 -51 -57z"/>
        <path d="M3852 1077 c-29 -29 -49 -56 -46 -60 4 -4 39 -7 79 -7 l71 0 52 53
c29 29 52 56 52 60 0 4 -35 7 -78 7 l-78 0 -52 -53z"/>
        <path d="M3392 876 c-45 -46 -82 -86 -82 -90 0 -3 35 -6 78 -6 l77 0 83 78
c45 42 82 83 82 90 0 8 -22 12 -78 12 l-78 0 -82 -84z"/>
        <path d="M3662 879 c-96 -102 -95 -99 -14 -99 l69 0 74 75 c41 42 76 80 77 85
2 6 -27 10 -68 10 l-71 0 -67 -71z"/>
        <path d="M3167 652 l-68 -69 73 -6 c89 -8 114 7 212 121 l19 22 -84 0 -85 0
-67 -68z"/>
        <path d="M3440 655 c-35 -35 -62 -66 -59 -68 2 -3 32 -7 67 -11 l62 -7 74 68
c41 37 74 71 75 76 1 4 -34 7 -77 7 l-78 0 -64 -65z"/>
        <path d="M2959 444 c-38 -37 -66 -71 -63 -75 3 -5 42 -9 87 -9 l83 0 71 69
c40 38 69 71 66 75 -4 3 -44 6 -91 6 l-84 0 -69 -66z"/>
        <path d="M3314 503 c-26 -5 -137 -121 -128 -134 3 -5 32 -9 66 -9 l60 0 69 66
c38 37 66 71 63 75 -5 9 -90 10 -130 2z"/>
        <path d="M298 213 c-31 -5 -68 -46 -68 -75 0 -71 66 -105 180 -94 83 9 105 28
105 92 0 47 -10 59 -60 76 -22 7 -114 7 -157 1z"/>
        <path d="M4483 213 c-52 -5 -73 -31 -73 -89 0 -54 21 -72 96 -80 109 -11 175
33 159 105 -13 58 -64 76 -182 64z"/>
    </g>
</svg>
